<svg width="55" height="55" viewBox="0 0 55 55" fill="none" xmlns="http://www.w3.org/2000/svg">
<circle cx="27.5" cy="27.5" r="27.5" fill="black"/>
<path d="M31.3359 14.9442C31.8931 14.2688 32.3179 13.4844 32.586 12.636C32.8541 11.7875 32.9602 10.8917 32.8982 10C31.1876 10.1452 29.5997 10.9912 28.4766 12.3558C27.9388 13.0099 27.5312 13.7707 27.2781 14.5933C27.0249 15.416 26.9313 16.2837 27.0027 17.145C27.8372 17.1523 28.662 16.9576 29.4134 16.576C30.1648 16.1944 30.8226 15.636 31.3359 14.9442ZM35.05 26.4754C35.0599 25.2878 35.3574 24.1224 35.9144 23.0892C36.4714 22.056 37.2696 21.1891 38.2336 20.5703C37.6252 19.6485 36.821 18.8884 35.8846 18.3503C34.9483 17.8123 33.9056 17.511 32.8392 17.4705C30.54 17.2225 28.4176 18.8809 27.1943 18.8809C25.971 18.8809 24.2466 17.5015 22.3306 17.5325C21.078 17.5759 19.8575 17.9599 18.7881 18.6472C17.7187 19.3344 16.8369 20.3014 16.2288 21.4537C13.6348 26.1964 15.5655 33.2485 18.1595 37.0767C19.3386 38.9521 20.8125 41.0754 22.758 40.9979C24.7035 40.9204 25.3373 39.727 27.5923 39.727C29.8473 39.727 30.54 40.9979 32.456 40.9514C34.3721 40.9049 35.728 39.0296 36.9661 37.1542C37.8431 35.7927 38.5282 34.3048 39 32.737C37.8319 32.2131 36.8354 31.341 36.1334 30.2282C35.4314 29.1154 35.0548 27.8108 35.05 26.4754Z" fill="white"/>
</svg>
