<svg width="55" height="55" viewBox="0 0 55 55" fill="none" xmlns="http://www.w3.org/2000/svg">
<circle cx="27.5" cy="27.5" r="27.5" fill="black"/>
<g clip-path="url(#clip0_2899_53598)">
<path d="M18.5206 13.4492C18.1922 13.7941 18 14.3354 18 15.0331V39.967C18 40.6648 18.1922 41.2021 18.5206 41.551L18.6047 41.6312L32.5539 27.6645V27.3357L18.6047 13.365L18.5206 13.4452V13.4492Z" fill="url(#paint0_linear_2899_53598)"/>
<path d="M37.2044 32.3239L32.5547 27.6643V27.3355L37.2044 22.6799L37.3085 22.7401L42.8193 25.8759C44.3933 26.7701 44.3933 28.2377 42.8193 29.132L37.3085 32.2677L37.2044 32.3279V32.3239Z" fill="url(#paint1_linear_2899_53598)"/>
<path d="M37.3126 32.2638L32.5548 27.5L18.5215 41.5509C19.0421 42.1002 19.8952 42.1684 20.8604 41.6191L37.3086 32.2598" fill="url(#paint2_linear_2899_53598)"/>
<path d="M37.3126 22.7362L20.8604 13.381C19.8952 12.8316 19.0421 12.8998 18.5215 13.4492L32.5548 27.5L37.3126 22.7362Z" fill="url(#paint3_linear_2899_53598)"/>
<path opacity="0.2" d="M37.2085 32.1555L20.8604 41.4546C19.9472 41.9759 19.1302 41.9398 18.6056 41.4666L18.5215 41.5508L18.6056 41.631C19.1302 42.1042 19.9472 42.1403 20.8604 41.619L37.3086 32.2598L37.2045 32.1555H37.2085Z" fill="black"/>
<path opacity="0.12" d="M18.5206 41.3864C18.1922 41.0376 18 40.5002 18 39.8025V39.9669C18 40.6646 18.1922 41.202 18.5206 41.5508L18.6047 41.4666L18.5206 41.3864Z" fill="black"/>
<path opacity="0.12" d="M42.818 28.9636L37.2031 32.1596L37.3073 32.2638L42.818 29.128C43.603 28.6789 43.9995 28.0895 43.9995 27.5C43.9314 28.0333 43.5309 28.5586 42.818 28.9636Z" fill="black"/>
<path opacity="0.25" d="M20.8595 13.5454L42.8185 26.0364C43.5314 26.4414 43.9319 26.9667 44 27.5C44 26.9105 43.6075 26.3211 42.8185 25.872L20.8595 13.381C19.2856 12.4827 18 13.2286 18 15.0331V15.1975C18 13.393 19.2856 12.6471 20.8595 13.5454Z" fill="white"/>
</g>
<defs>
<linearGradient id="paint0_linear_2899_53598" x1="31.3164" y1="14.7685" x2="12.3974" y2="33.6677" gradientUnits="userSpaceOnUse">
<stop stop-color="#00A1FF"/>
<stop offset="0.26" stop-color="#00BEFF"/>
<stop offset="0.51" stop-color="#00D2FF"/>
<stop offset="0.76" stop-color="#00DFFF"/>
<stop offset="1" stop-color="#00E3FF"/>
</linearGradient>
<linearGradient id="paint1_linear_2899_53598" x1="44.8698" y1="27.4999" x2="17.6243" y2="27.4999" gradientUnits="userSpaceOnUse">
<stop stop-color="#FFE000"/>
<stop offset="0.41" stop-color="#FFBD00"/>
<stop offset="0.78" stop-color="#FFA500"/>
<stop offset="1" stop-color="#FF9C00"/>
</linearGradient>
<linearGradient id="paint2_linear_2899_53598" x1="34.7294" y1="30.0864" x2="9.06975" y2="55.7139" gradientUnits="userSpaceOnUse">
<stop stop-color="#FF3A44"/>
<stop offset="1" stop-color="#C31162"/>
</linearGradient>
<linearGradient id="paint3_linear_2899_53598" x1="14.9891" y1="5.14855" x2="26.4456" y2="16.5906" gradientUnits="userSpaceOnUse">
<stop stop-color="#32A071"/>
<stop offset="0.07" stop-color="#2DA771"/>
<stop offset="0.48" stop-color="#15CF74"/>
<stop offset="0.8" stop-color="#06E775"/>
<stop offset="1" stop-color="#00F076"/>
</linearGradient>
<clipPath id="clip0_2899_53598">
<rect width="26" height="29" fill="white" transform="translate(18 13)"/>
</clipPath>
</defs>
</svg>
