<svg width="55" height="55" viewBox="0 0 55 55" fill="none" xmlns="http://www.w3.org/2000/svg">
<circle cx="27.5" cy="27.5" r="27.5" fill="#FE5B88"/>
<path d="M41.0974 17H13.8374C12.3946 17 13.1378 18.8773 13.9244 19.3577L26.0101 26.7423C26.4552 26.993 26.9581 27.1195 27.4674 27.109C27.9966 27.109 28.5186 26.988 28.9282 26.7423C29.3379 26.4967 40.2237 19.8343 41.0104 19.3577C41.797 18.8773 42.5437 17 41.0974 17Z" fill="white" fill-opacity="0.8"/>
<path d="M40.3905 39C41.0865 39 42 37.9367 42 37.1667V23.798V23.7866C42.0001 23.4509 42.0002 23.0249 41.3765 23.3947L28.9282 30.7793C28.3809 31.1057 27.9966 31.146 27.4674 31.146C26.956 31.1776 26.4473 31.0496 26.0101 30.7793L13.6235 23.391C12.9998 23.0248 12.9999 23.4473 13 23.783L13 23.7943V37.1667C13 37.9367 13.9135 39 14.6095 39H40.3905Z" fill="white" fill-opacity="0.8"/>
</svg>
