<svg width="214" height="57" viewBox="0 0 214 57" fill="none" xmlns="http://www.w3.org/2000/svg">
<g clip-path="url(#clip0_3317_56240)">
<path fill-rule="evenodd" clip-rule="evenodd" d="M37.3327 7.86756L38.892 2.24388C38.9658 1.98416 38.9772 1.71155 38.925 1.44696C38.8729 1.18237 38.7589 0.932866 38.5916 0.717583C38.4258 0.502674 38.2102 0.328276 37.9622 0.208375C37.7143 0.0884751 37.4409 0.0263959 37.1636 0.0271056H6.59485C6.31762 0.0263959 6.04398 0.0884751 5.79602 0.208375C5.54806 0.328276 5.33266 0.502674 5.16691 0.717583C4.99954 0.932866 4.88555 1.18237 4.83344 1.44696C4.78132 1.71155 4.79242 1.98416 4.86623 2.24388L6.42582 7.86756C4.56747 8.44463 2.94739 9.57905 1.8005 11.1064C0.653614 12.6337 0.0394822 14.4746 0.0471152 16.3621V48.16C0.0295942 50.4966 0.97132 52.7444 2.66561 54.4102C4.3599 56.076 6.66823 57.0237 9.08422 57.0453H34.721C37.137 57.0237 39.4456 56.076 41.1399 54.4102C42.8342 52.7444 43.7759 50.4966 43.7584 48.16V16.3621C43.7629 14.4689 43.1418 12.6238 41.986 11.0957C40.8301 9.56771 39.1998 8.43669 37.3327 7.86756ZM3.12844 12.0013C4.06514 10.7724 5.38082 9.86269 6.88612 9.40295L8.40787 8.94869L6.43522 1.82597C6.42203 1.80387 6.41504 1.77879 6.41504 1.75327C6.41504 1.72776 6.42203 1.7027 6.43522 1.6806C6.44402 1.66391 6.45737 1.64996 6.47398 1.64032C6.49059 1.63068 6.50966 1.62575 6.52903 1.62609H37.1448C37.1596 1.61956 37.1756 1.61617 37.1918 1.61617C37.2081 1.61617 37.2241 1.61956 37.2389 1.62609C37.2529 1.64957 37.2602 1.6762 37.2602 1.70331C37.2602 1.73042 37.2529 1.75705 37.2389 1.78053L35.266 8.90328L36.7877 9.35753C38.293 9.81728 39.6087 10.727 40.5454 11.9559C41.5074 13.2191 42.0245 14.7478 42.0204 16.3167V36.5675C40.6958 37.476 35.6041 40.2923 24.6693 40.0016C17.4733 39.8108 13.9317 34.4779 6.8203 34.3416C5.04873 34.315 3.28355 34.5541 1.58766 35.0502V16.3349C1.60254 14.7588 2.14298 13.2294 3.12844 11.974V12.0013Z" fill="#00AACE"/>
<path fill-rule="evenodd" clip-rule="evenodd" d="M33.4335 32.3975C29.3376 36.177 24.0955 37.458 24.8283 42.0005C25.9556 49.0142 41.3434 50.2498 29.3939 51.8215C19.9997 53.0662 9.81643 47.2154 8.7267 37.9213C7.98456 31.6526 9.80709 25.9017 13.4802 21.9588C12.5956 21.1104 11.508 20.4863 10.3143 20.1417C7.496 19.4785 8.70784 16.8257 9.12118 16.217C9.53453 15.6083 12.879 14.0184 13.4802 17.607C13.6504 18.7001 14.1924 19.7071 15.0208 20.4688C15.9677 19.6791 17.0047 18.9963 18.1115 18.4337L18.7032 18.1521C18.4603 16.9406 17.9822 15.7845 17.2941 14.7452C17.0729 14.4072 16.9593 14.0139 16.967 13.614C16.9747 13.2141 17.1034 12.8252 17.3374 12.4955C17.5714 12.1657 17.9005 11.9095 18.2835 11.7587C18.6666 11.608 19.0868 11.5692 19.4924 11.6471C19.8164 11.6831 20.1263 11.7955 20.3949 11.9744C20.6635 12.1532 20.8825 12.3932 21.0327 12.6731C21.183 12.9529 21.26 13.2642 21.2568 13.5796C21.2536 13.895 21.1703 14.2047 21.0144 14.4817C20.5817 15.3771 20.4501 16.3812 20.6385 17.3526C25.035 15.7718 30.6059 15.3448 34.1663 19.5603C35.6895 21.4087 36.4574 23.7339 36.324 26.0939C36.1906 28.454 35.1653 30.6844 33.4429 32.3612" fill="#E64762"/>
<path fill-rule="evenodd" clip-rule="evenodd" d="M28.1268 21.1409C26.9429 20.3634 25.5149 20.0113 24.0906 20.1457C22.6663 20.2801 21.3358 20.8926 20.3297 21.8768C19.382 22.8646 18.8208 24.1416 18.7436 25.4871C18.6664 26.8325 19.0778 28.1618 19.9068 29.2449C21.1281 30.7439 24.3691 31.5525 27.7041 29.472C28.3874 29.0115 28.9526 28.4056 29.3561 27.7009C29.7595 26.9962 29.9905 26.2114 30.0313 25.4069C30.0721 24.6024 29.9218 23.7995 29.5916 23.0599C29.2615 22.3204 28.7602 21.6639 28.1268 21.1409Z" fill="white"/>
<path fill-rule="evenodd" clip-rule="evenodd" d="M25.7037 23.9846C25.441 23.7716 25.107 23.6586 24.7643 23.6667C24.4022 23.6795 24.0471 23.7672 23.723 23.924C23.3989 24.0807 23.1133 24.3027 22.8854 24.5752C22.0587 25.4837 21.9459 26.7828 22.7162 27.3824C22.9789 27.5954 23.3129 27.7085 23.6556 27.7005C24.0177 27.6876 24.3728 27.5998 24.6968 27.4431C25.0209 27.2864 25.3065 27.0644 25.5344 26.7919C26.3611 25.8834 26.474 24.5842 25.7037 23.9846Z" fill="#101219"/>
<path fill-rule="evenodd" clip-rule="evenodd" d="M20.1688 32.9882C19.883 33.6371 19.7392 34.3361 19.7461 35.0414C19.7461 35.0414 18.4592 34.5236 18.168 33.8331C18.6881 33.4114 19.2833 33.0851 19.9246 32.8701C19.9246 32.8701 20.2534 32.7247 20.1688 32.9882Z" fill="white"/>
<path fill-rule="evenodd" clip-rule="evenodd" d="M18.9569 30.635C18.5825 31.6942 18.3184 32.7868 18.1679 33.8966C17.4575 33.1951 16.8276 32.4214 16.2891 31.5889C16.9347 30.9535 17.7808 30.5443 18.6938 30.4261C18.6938 30.4261 19.0978 30.3261 18.9945 30.635" fill="white"/>
<path fill-rule="evenodd" clip-rule="evenodd" d="M27.3281 36.2038C25.6278 36.9124 16.5341 37.8754 14.5519 30.0532C14.4809 29.7468 14.5208 29.4261 14.6648 29.1447C14.7185 29.0623 14.7887 28.9913 14.8714 28.9357C14.9335 28.8858 15.0052 28.8482 15.0824 28.8253C15.1596 28.8024 15.2408 28.7945 15.3212 28.8021C15.4015 28.8097 15.4796 28.8326 15.5507 28.8696C15.6219 28.9066 15.6847 28.9569 15.7356 29.0175C15.8108 29.113 15.8593 29.2256 15.8764 29.3446C15.8764 29.4627 15.8764 29.5989 15.8764 29.7624C16.1489 32.4062 19.0986 36.7671 27.1495 35.9131C27.1495 35.9131 27.5723 36.0675 27.2529 36.1947L27.3281 36.2038Z" fill="#101219"/>
<path fill-rule="evenodd" clip-rule="evenodd" d="M13.9297 29.8809C13.9549 29.6579 14.0281 29.4425 14.1446 29.2484C14.2611 29.0544 14.4183 28.8861 14.606 28.7544C15.2448 28.3092 16.5601 28.6454 16.5601 28.6454L13.9297 29.8809Z" fill="#101219"/>
<path d="M62.2085 41.265C60.5859 40.3562 59.2435 39.0453 58.3194 37.4674C57.3566 35.849 56.8602 34.0105 56.8821 32.1435C56.8533 30.2671 57.3326 28.416 58.2724 26.7742C59.1485 25.2184 60.448 23.924 62.0301 23.0311C63.6799 22.1117 65.5561 21.6409 67.46 21.6684C68.5368 21.6676 69.6096 21.7958 70.6539 22.0499C71.6055 22.263 72.5137 22.6284 73.3408 23.1311L72.5233 27.6736C71.2767 27.1863 69.9501 26.9186 68.606 26.8832C67.9236 26.8408 67.2395 26.9396 66.5997 27.173C65.9598 27.4064 65.3788 27.7691 64.8954 28.2369C63.9655 29.3289 63.5017 30.723 63.5988 32.1344C63.553 32.8337 63.6506 33.5348 63.886 34.1974C64.1214 34.8601 64.4899 35.4712 64.9704 35.9956C65.4701 36.4725 66.0679 36.8427 66.7249 37.0821C67.3819 37.3216 68.0835 37.4249 68.7845 37.3856C69.3717 37.3904 69.9578 37.3325 70.5319 37.213C71.2127 37.0505 71.8786 36.8348 72.5233 36.568L73.369 41.1741C71.6349 42.1664 69.6533 42.6816 67.6384 42.6641C65.7181 42.6848 63.8269 42.2081 62.1615 41.2832" fill="white"/>
<path d="M75.6816 27.7639H82.0415V30.7438C82.4041 29.7374 83.0559 28.8518 83.9204 28.1909C84.7427 27.627 85.7308 27.334 86.7386 27.3551L87.6122 32.1157C86.182 32.0404 84.7507 32.2443 83.4037 32.7153C83.0062 32.856 82.6637 33.1125 82.4232 33.4493C82.1826 33.786 82.0559 34.1866 82.0603 34.5959V42.182H75.7004L75.6816 27.7639Z" fill="white"/>
<path d="M92.1374 41.4101C90.9726 40.7166 90.0138 39.7425 89.3551 38.5831C88.6964 37.4237 88.3604 36.1189 88.3797 34.7962C88.3618 33.4614 88.7153 32.1466 89.4035 30.9895C90.0595 29.8816 91.0057 28.9604 92.1468 28.3185C93.255 27.6897 94.5161 27.3573 95.801 27.3555C96.8375 27.357 97.8505 27.6541 98.7133 28.2095C99.6494 28.826 100.36 29.7133 100.742 30.7442V27.3555H107.112V42.1824H100.771V39.4568C100.351 40.3702 99.6551 41.1394 98.7748 41.6632C97.8945 42.187 96.8709 42.4408 95.8386 42.3913C94.5446 42.3978 93.2749 42.0514 92.175 41.392L92.1374 41.4101ZM99.8594 36.9584C100.423 36.4427 100.76 35.7365 100.799 34.9869V34.7508C100.785 34.377 100.695 34.0096 100.534 33.6697C100.372 33.3298 100.143 33.024 99.8594 32.7702C99.5924 32.5103 99.2747 32.3043 98.9248 32.1639C98.5749 32.0236 98.1997 31.9517 97.8209 31.9525C97.0185 31.9525 96.2486 32.2589 95.6786 32.805C95.1085 33.3512 94.7846 34.0929 94.7772 34.8688C94.7743 35.2586 94.8564 35.6445 95.0182 36.0015C95.1801 36.3584 95.4182 36.6783 95.7166 36.9403C95.9983 37.2109 96.3325 37.4249 96.7001 37.5699C97.0677 37.7149 97.4613 37.7881 97.8583 37.7852C98.2429 37.791 98.6249 37.7207 98.9803 37.5785C99.3357 37.4364 99.6573 37.2253 99.9252 36.9584" fill="white"/>
<path d="M109.564 39.0569L114.872 31.2982H109.771V27.5642H122.322V30.7167L117.286 38.4482H122.444V42.1822H109.564V39.0569Z" fill="white"/>
<path d="M129.771 48.5417L130.25 44.2263C130.969 44.3332 131.694 44.3909 132.42 44.3989C132.924 44.4313 133.429 44.3552 133.898 44.1761C134.368 43.997 134.79 43.7193 135.136 43.3632C135.765 42.6727 136.075 41.3736 136.075 39.4657C135.628 40.3791 134.911 41.1437 134.015 41.6628C133.119 42.182 132.083 42.4322 131.04 42.382C130.168 42.4227 129.298 42.2628 128.503 41.9153C127.708 41.5678 127.009 41.0427 126.465 40.3832C125.279 38.7784 124.698 36.8285 124.821 34.8595V27.5914H131.152V35.768C131.131 36.3695 131.338 36.9577 131.735 37.4215C131.927 37.6394 132.168 37.8117 132.44 37.9251C132.712 38.0385 133.008 38.09 133.303 38.0756C133.633 38.0786 133.957 38.0031 134.249 37.8557C134.541 37.7083 134.79 37.4937 134.976 37.2307C135.435 36.5793 135.662 35.8013 135.624 35.014V27.5732H141.984V38.4754C141.984 41.855 141.201 44.4322 139.635 46.2068C138.792 47.1093 137.75 47.8164 136.585 48.2756C135.421 48.7349 134.164 48.9345 132.909 48.8597C131.845 48.8623 130.784 48.7558 129.743 48.5417" fill="white"/>
<path d="M144.504 22.1133H151.014V37.7488H158.229V42.1823H144.504V22.1133Z" fill="white"/>
<path d="M163.272 41.4101C162.137 40.7426 161.199 39.804 160.547 38.6845C159.854 37.5058 159.498 36.1701 159.514 34.8142C159.499 33.4787 159.856 32.1638 160.547 31.0076C161.2 29.8976 162.147 28.9758 163.291 28.3366C164.396 27.7082 165.654 27.3757 166.936 27.3735C167.972 27.3724 168.986 27.6696 169.848 28.2275C170.789 28.8408 171.503 29.7289 171.886 30.7623V27.3735H178.218V42.2004H171.933V39.4749C171.513 40.3922 170.815 41.1647 169.931 41.6902C169.047 42.2158 168.019 42.4697 166.983 42.4185C165.688 42.425 164.419 42.0786 163.319 41.4191L163.272 41.4101ZM170.994 36.9402C171.558 36.4244 171.894 35.7183 171.933 34.9687V34.7325C171.92 34.3588 171.829 33.9914 171.668 33.6514C171.507 33.3115 171.278 33.0058 170.994 32.752C170.414 32.2573 169.66 31.9975 168.888 32.0265C168.115 32.0555 167.384 32.3712 166.846 32.9079C166.308 33.4446 166.004 34.1611 165.998 34.9086C165.992 35.6561 166.284 36.3772 166.814 36.922C167.094 37.1939 167.428 37.4087 167.796 37.5538C168.164 37.6989 168.558 37.7714 168.955 37.7669C169.34 37.7728 169.722 37.7025 170.077 37.5603C170.433 37.4181 170.754 37.2071 171.022 36.9402" fill="white"/>
<path d="M187.722 39.466V42.1915H181.324V22.9583L187.722 22.0498V30.3082C188.124 29.3837 188.809 28.6005 189.685 28.0641C190.572 27.5699 191.584 27.3245 192.607 27.3555C193.929 27.3402 195.23 27.6799 196.364 28.3367C197.498 28.9936 198.427 29.9355 199.051 31.0623C199.697 32.2485 200.02 33.5741 199.991 34.9144C200.006 36.2534 199.656 37.5727 198.976 38.7392C198.336 39.8636 197.399 40.804 196.261 41.4647C195.153 42.0973 193.884 42.4183 192.597 42.3914C191.565 42.448 190.539 42.1958 189.66 41.6692C188.781 41.1425 188.091 40.367 187.684 39.4478L187.722 39.466ZM192.785 36.913C193.065 36.646 193.286 36.3276 193.436 35.9765C193.586 35.6254 193.662 35.2488 193.659 34.8689C193.66 34.2971 193.486 33.7377 193.16 33.2607C192.834 32.7838 192.369 32.4104 191.825 32.1874C191.281 31.9644 190.68 31.9015 190.099 32.0068C189.518 32.1121 188.982 32.3808 188.558 32.7793C188.282 33.0337 188.062 33.3396 187.912 33.6785C187.762 34.0173 187.684 34.3822 187.684 34.7508V34.8689C187.675 35.2587 187.747 35.6463 187.896 36.0087C188.045 36.3711 188.267 36.701 188.55 36.9788C188.833 37.2566 189.171 37.4768 189.543 37.6262C189.916 37.7757 190.315 37.8514 190.718 37.8488C191.117 37.8506 191.512 37.7705 191.876 37.6139C192.241 37.4573 192.566 37.2277 192.832 36.9403" fill="white"/>
<path d="M201.992 41.4826L202.688 38.012C204.038 38.496 205.465 38.7511 206.906 38.7661C207.911 38.7661 208.418 38.4935 208.418 37.9484C208.414 37.8095 208.37 37.6743 208.293 37.5574C208.215 37.4405 208.106 37.3464 207.977 37.2852C207.462 37.0358 206.905 36.8758 206.333 36.8128C204.994 36.6521 203.737 36.1043 202.725 35.2411C202.312 34.7563 202.003 34.1958 201.819 33.593C201.635 32.9903 201.578 32.3578 201.653 31.7334C201.728 31.1091 201.932 30.5057 202.253 29.9594C202.575 29.4132 203.007 28.9353 203.524 28.5545C204.971 27.6676 206.669 27.2389 208.381 27.3279C209.286 27.3172 210.191 27.3811 211.086 27.5187C211.801 27.6354 212.497 27.8463 213.153 28.1456L212.514 31.6252C211.344 31.2136 210.113 30.9866 208.869 30.9529C208.387 30.9184 207.903 30.9867 207.45 31.1528C207.336 31.1984 207.238 31.275 207.168 31.3734C207.098 31.4717 207.059 31.5876 207.056 31.707C207.056 32.134 207.563 32.4338 208.568 32.6155C210.063 32.785 211.481 33.3509 212.664 34.2508C213.121 34.6496 213.481 35.142 213.716 35.692C213.952 36.2421 214.058 36.836 214.026 37.4306C214.06 38.1205 213.927 38.8085 213.636 39.4396C213.346 40.0706 212.907 40.6272 212.354 41.0646C210.959 42.0337 209.258 42.5028 207.544 42.3911C205.651 42.4251 203.768 42.117 201.992 41.4826Z" fill="white"/>
</g>
<defs>
<clipPath id="clip0_3317_56240">
<rect width="214" height="57" fill="white"/>
</clipPath>
</defs>
</svg>
